<svg xmlns="http://www.w3.org/2000/svg" width="1600" height="640" fill="none" viewBox="0 0 1600 640"><defs><linearGradient id="bg" x1="0" x2="1600" y1="0" y2="640" gradientUnits="userSpaceOnUse"><stop offset="0" stop-color="#0A0F1A"/><stop offset=".55" stop-color="#101827"/><stop offset="1" stop-color="#061B1A"/></linearGradient><linearGradient id="line" x1="160" x2="1450" y1="92" y2="550" gradientUnits="userSpaceOnUse"><stop offset="0" stop-color="#5EEAD4"/><stop offset=".5" stop-color="#93C5FD"/><stop offset="1" stop-color="#FBBF24"/></linearGradient><linearGradient id="title" x1="210" x2="1000" y1="210" y2="210" gradientUnits="userSpaceOnUse"><stop offset="0" stop-color="#F8FAFC"/><stop offset=".65" stop-color="#D1FAE5"/><stop offset="1" stop-color="#BFDBFE"/></linearGradient><filter id="softGlow" width="200%" height="200%" x="-50%" y="-50%"><feGaussianBlur result="blur" stdDeviation="28"/><feColorMatrix in="blur" type="matrix" values="0 0 0 0 0.09 0 0 0 0 0.83 0 0 0 0 0.74 0 0 0 0.42 0"/></filter><pattern id="grid" width="48" height="48" patternUnits="userSpaceOnUse"><path stroke="#94A3B8" stroke-opacity=".08" stroke-width="1" d="M48 0H0V48"/></pattern></defs><rect width="1600" height="640" fill="url(#bg)"/><rect width="1600" height="640" fill="url(#grid)"/><circle cx="1380" cy="110" r="210" fill="#14B8A6" filter="url(#softGlow)" opacity=".15"/><circle cx="1240" cy="530" r="190" fill="#F59E0B" filter="url(#softGlow)" opacity=".09"/><path stroke="url(#line)" stroke-linecap="round" stroke-width="3" d="M173 470C297 377 407 443 515 350C619 261 740 230 870 292C1006 357 1087 270 1212 204C1302 157 1391 157 1464 194" opacity=".58"/><g opacity=".94"><rect width="372" height="284" x="1030" y="168" fill="#0B1220" stroke="#334155" rx="22"/><rect width="372" height="54" x="1030" y="168" fill="#111827" rx="22"/><circle cx="1062" cy="195" r="7" fill="#F87171"/><circle cx="1086" cy="195" r="7" fill="#FBBF24"/><circle cx="1110" cy="195" r="7" fill="#34D399"/><text x="1060" y="264" fill="#5EEAD4" font-family="ui-monospace, SFMono-Regular, Menlo, Monaco, Consolas, monospace" font-size="25">$ curl zzzplus.com/v1</text><text x="1060" y="310" fill="#CBD5E1" font-family="ui-monospace, SFMono-Regular, Menlo, Monaco, Consolas, monospace" font-size="23">register</text><text x="1060" y="350" fill="#CBD5E1" font-family="ui-monospace, SFMono-Regular, Menlo, Monaco, Consolas, monospace" font-size="23">get api key</text><text x="1060" y="390" fill="#CBD5E1" font-family="ui-monospace, SFMono-Regular, Menlo, Monaco, Consolas, monospace" font-size="23">replace base url</text></g><g><rect width="84" height="84" x="188" y="112" fill="#F8FAFC" fill-opacity=".06" stroke="#5EEAD4" stroke-opacity=".5" rx="22"/><path fill="#5EEAD4" d="M215 142H247V151H215V142Z"/><path fill="#93C5FD" d="M215 162H239V171H215V162Z"/><path stroke="#FBBF24" stroke-linecap="round" stroke-linejoin="round" stroke-width="6" d="M251 158L262 169L251 180"/></g><text x="188" y="284" fill="url(#title)" font-family="-apple-system, BlinkMacSystemFont, Segoe UI, PingFang SC, Microsoft YaHei, sans-serif" font-size="104" font-weight="800">瞩目AI</text><text x="193" y="348" fill="#CBD5E1" font-family="-apple-system, BlinkMacSystemFont, Segoe UI, PingFang SC, Microsoft YaHei, sans-serif" font-size="32" font-weight="500">AI 教学基地 · 中转 API · 一站接入主流客户端</text><g fill="#E2E8F0" font-family="ui-monospace, SFMono-Regular, Menlo, Monaco, Consolas, monospace" font-size="22"><rect width="142" height="42" x="190" y="405" fill="#0F766E" fill-opacity=".22" stroke="#2DD4BF" stroke-opacity=".42" rx="21"/><text x="220" y="433">ChatBox</text><rect width="152" height="42" x="354" y="405" fill="#1D4ED8" fill-opacity=".18" stroke="#60A5FA" stroke-opacity=".38" rx="21"/><text x="388" y="433">NextChat</text><rect width="124" height="42" x="528" y="405" fill="#334155" fill-opacity=".38" stroke="#94A3B8" stroke-opacity=".32" rx="21"/><text x="560" y="433">Cursor</text><rect width="118" height="42" x="674" y="405" fill="#7C2D12" fill-opacity=".18" stroke="#FBBF24" stroke-opacity=".36" rx="21"/><text x="708" y="433">Codex</text><rect width="100" height="42" x="814" y="405" fill="#312E81" fill-opacity=".18" stroke="#A5B4FC" stroke-opacity=".34" rx="21"/><text x="846" y="433">CLI</text></g><text x="190" y="535" fill="#64748B" font-family="-apple-system, BlinkMacSystemFont, Segoe UI, sans-serif" font-size="24">Register · Get Key · Replace API Base · Build with AI</text></svg>
